# xmcd CD database file
#
# Track frame offsets:
#	150
#	16925
#	36630
#	44467
#	63120
#	84867
#	97477
#	117720
#	135375
#	150197
#	169687
#	187530
#	200577
#	217642
#
# Disc length: 3127 seconds
#
# Revision: 2
# Processed by: cddbd v1.5.2PL0 Copyright (c) Steve Scherf et al.
# Submitted via: CDex 1.70beta2
#
DISCID=b00c350e
DTITLE=Simone - Coleção BIS - Vol.1
DYEAR=2001
DGENRE=MPB
TTITLE0=Começar de Novo
TTITLE1=Jura Secreta
TTITLE2=Maria, Maria
TTITLE3=Sangrrando
TTITLE4=O Que Será
TTITLE5=Atrevida
TTITLE6=Face a Face
TTITLE7=Música Música, Jura Secreta
TTITLE8=Sob Medida
TTITLE9=Voltei Pro Morro
TTITLE10=Tô Voltando
TTITLE11=Proposta
TTITLE12=Revelação
TTITLE13=Outra Vez
EXTD=YEAR: 2001
EXTT0=
EXTT1=
EXTT2=
EXTT3=
EXTT4=
EXTT5=
EXTT6=
EXTT7=
EXTT8=
EXTT9=
EXTT10=
EXTT11=
EXTT12=
EXTT13=
PLAYORDER=
